<svg width="128" height="128" viewBox="0 0 128 128" fill="none" xmlns="http://www.w3.org/2000/svg">
<g clip-path="url(#clip0_602_4)">
<circle cx="64" cy="64" r="63.5" stroke="white" stroke-dasharray="2 2"/>
<path d="M36.008 71.6C30.92 71.6 27.224 67.784 27.248 62.528C27.248 57.272 30.92 53.48 36.008 53.48C39.824 53.48 43.184 56.072 44.024 59.624L41.888 59.912C41.264 57.296 38.792 55.4 36.008 55.4C32.168 55.4 29.432 58.4 29.432 62.528C29.432 66.68 32.192 69.68 36.008 69.68C38.744 69.68 41.216 67.832 41.912 65.336L44 65.744C43.16 69.128 39.8 71.6 36.008 71.6ZM47.5456 71V54.08H49.7296V69.08H58.2496V71H47.5456ZM61.28 71V54.08H63.464V71H61.28ZM75.758 71.6C70.67 71.6 66.974 67.784 66.998 62.528C66.998 57.272 70.67 53.48 75.758 53.48C79.574 53.48 82.934 56.072 83.774 59.624L81.638 59.912C81.014 57.296 78.542 55.4 75.758 55.4C71.918 55.4 69.182 58.4 69.182 62.528C69.182 66.68 71.942 69.68 75.758 69.68C78.494 69.68 80.966 67.832 81.662 65.336L83.75 65.744C82.91 69.128 79.55 71.6 75.758 71.6ZM87.2956 71V54.08H89.4796V61.472H89.7196L96.7276 54.08H99.4636L91.5916 62.264L99.7036 71H96.9436L89.7196 63.056H89.4796V71H87.2956Z" fill="white"/>
</g>
<defs>
<clipPath id="clip0_602_4">
<rect width="128" height="128" fill="white"/>
</clipPath>
</defs>
</svg>
